<svg width="20" height="20" viewBox="0 0 20 20" fill="none" xmlns="http://www.w3.org/2000/svg">
<path d="M3.3335 3.33341C3.3335 2.89139 3.50909 2.46746 3.82165 2.1549C4.13421 1.84234 4.55814 1.66675 5.00016 1.66675H15.0002C15.4422 1.66675 15.8661 1.84234 16.1787 2.1549C16.4912 2.46746 16.6668 2.89139 16.6668 3.33341V17.5001C16.6668 17.6532 16.6247 17.8033 16.545 17.934C16.4653 18.0648 16.3511 18.171 16.215 18.2411C16.0788 18.3111 15.926 18.3424 15.7733 18.3313C15.6206 18.3203 15.4739 18.2674 15.3493 18.1784L10.0002 14.3576L4.651 18.1784C4.52639 18.2674 4.37968 18.3203 4.22698 18.3313C4.07428 18.3424 3.92149 18.3111 3.78537 18.2411C3.64925 18.171 3.53507 18.0648 3.45536 17.934C3.37564 17.8033 3.33348 17.6532 3.3335 17.5001V3.33341ZM15.0002 3.33341H5.00016V15.8809L9.516 12.6559C9.65729 12.5551 9.82656 12.5008 10.0002 12.5008C10.1738 12.5008 10.343 12.5551 10.4843 12.6559L15.0002 15.8801V3.33341Z" fill="#0D0D0D"/>
</svg>
