<svg width="15" height="15" viewBox="0 0 15 15" fill="none" xmlns="http://www.w3.org/2000/svg">
<g clip-path="url(#clip0_1804_3311)">
<path d="M13.125 0.9375C13.3736 0.9375 13.6121 1.03627 13.7879 1.21209C13.9637 1.3879 14.0625 1.62636 14.0625 1.875V9.375C14.0625 9.62364 13.9637 9.8621 13.7879 10.0379C13.6121 10.2137 13.3736 10.3125 13.125 10.3125H4.13812C3.64088 10.3126 3.16405 10.5102 2.8125 10.8619L0.9375 12.7369V1.875C0.9375 1.62636 1.03627 1.3879 1.21209 1.21209C1.3879 1.03627 1.62636 0.9375 1.875 0.9375H13.125ZM1.875 0C1.37772 0 0.900806 0.197544 0.549175 0.549175C0.197544 0.900806 0 1.37772 0 1.875L0 13.8684C1.97014e-05 13.9612 0.0275555 14.0519 0.0791224 14.1289C0.130689 14.206 0.203969 14.2661 0.289687 14.3015C0.375405 14.337 0.469707 14.3462 0.560659 14.328C0.65161 14.3098 0.735122 14.265 0.800625 14.1994L3.47531 11.5247C3.65109 11.3489 3.8895 11.2501 4.13812 11.25H13.125C13.6223 11.25 14.0992 11.0525 14.4508 10.7008C14.8025 10.3492 15 9.87228 15 9.375V1.875C15 1.37772 14.8025 0.900806 14.4508 0.549175C14.0992 0.197544 13.6223 0 13.125 0L1.875 0Z" fill="black"/>
<path d="M4.6875 5.625C4.6875 5.87364 4.58873 6.1121 4.41291 6.28791C4.2371 6.46373 3.99864 6.5625 3.75 6.5625C3.50136 6.5625 3.2629 6.46373 3.08709 6.28791C2.91127 6.1121 2.8125 5.87364 2.8125 5.625C2.8125 5.37636 2.91127 5.1379 3.08709 4.96209C3.2629 4.78627 3.50136 4.6875 3.75 4.6875C3.99864 4.6875 4.2371 4.78627 4.41291 4.96209C4.58873 5.1379 4.6875 5.37636 4.6875 5.625ZM8.4375 5.625C8.4375 5.87364 8.33873 6.1121 8.16291 6.28791C7.9871 6.46373 7.74864 6.5625 7.5 6.5625C7.25136 6.5625 7.0129 6.46373 6.83709 6.28791C6.66127 6.1121 6.5625 5.87364 6.5625 5.625C6.5625 5.37636 6.66127 5.1379 6.83709 4.96209C7.0129 4.78627 7.25136 4.6875 7.5 4.6875C7.74864 4.6875 7.9871 4.78627 8.16291 4.96209C8.33873 5.1379 8.4375 5.37636 8.4375 5.625ZM12.1875 5.625C12.1875 5.87364 12.0887 6.1121 11.9129 6.28791C11.7371 6.46373 11.4986 6.5625 11.25 6.5625C11.0014 6.5625 10.7629 6.46373 10.5871 6.28791C10.4113 6.1121 10.3125 5.87364 10.3125 5.625C10.3125 5.37636 10.4113 5.1379 10.5871 4.96209C10.7629 4.78627 11.0014 4.6875 11.25 4.6875C11.4986 4.6875 11.7371 4.78627 11.9129 4.96209C12.0887 5.1379 12.1875 5.37636 12.1875 5.625Z" fill="black"/>
</g>
<defs>
<clipPath id="clip0_1804_3311">
<rect width="15" height="15" fill="white"/>
</clipPath>
</defs>
</svg>
