<svg width="50" height="50" viewBox="0 0 50 50" fill="none" xmlns="http://www.w3.org/2000/svg">
<rect width="50" height="50" rx="4" fill="#FEE500"/>
<path d="M25.4595 12.5187C17.3262 12.5187 10.7334 17.7296 10.7334 24.1611C10.7334 28.3459 13.5251 32.0135 17.7183 34.0656C17.4096 35.214 16.6033 38.231 16.442 38.8761C16.2418 39.6769 16.7339 39.6658 17.0593 39.4517C17.3123 39.282 21.0939 36.71 22.7261 35.6005C23.6132 35.7312 24.5252 35.8007 25.4595 35.8007C33.5927 35.8007 40.1856 30.5899 40.1856 24.1611C40.1856 17.7324 33.5927 12.5187 25.4595 12.5187Z" fill="#371D1E"/>
<path d="M15.1854 22.0173H16.7008C16.7008 22.0173 16.7092 26.1799 16.7008 27.1503C16.7008 27.8594 18.2774 27.8677 18.2746 27.1614L18.2802 22.0729C18.2802 22.0729 18.789 22.0757 19.7873 22.0757C20.7299 22.0757 20.7299 20.5936 19.7873 20.5936C18.7251 20.5936 15.177 20.563 15.177 20.563C14.2873 20.563 14.29 22.0173 15.177 22.0173" fill="#371D1E"/>
<mask id="mask0_1924_1637" style="mask-type:luminance" maskUnits="userSpaceOnUse" x="14" y="20" width="7" height="8">
<path d="M15.1854 22.0173H16.7008C16.7008 22.0173 16.7092 26.1799 16.7008 27.1503C16.7008 27.8594 18.2774 27.8677 18.2746 27.1614L18.2802 22.0729C18.2802 22.0729 18.789 22.0757 19.7873 22.0757C20.7299 22.0757 20.7299 20.5936 19.7873 20.5936C18.7251 20.5936 15.177 20.563 15.177 20.563C14.2873 20.563 14.29 22.0173 15.177 22.0173" fill="white"/>
</mask>
<g mask="url(#mask0_1924_1637)">
<path d="M20.7353 20.563H14.2954V27.8677H20.7353V20.563Z" fill="#371D1E"/>
</g>
<path d="M22.4399 22.2842L23.2824 24.9258H21.5251L22.4399 22.2842ZM21.4945 21.0468C21.1219 21.8671 19.7733 25.7461 19.3284 26.7749C19.0058 27.5173 20.3989 28.1235 20.7215 27.3811L21.0246 26.3216H23.7968C23.7968 26.3216 23.7023 26.3661 24.0693 27.3366C24.3668 28.1235 25.8072 27.5785 25.5097 26.7916C25.0842 25.6682 23.6105 21.6196 23.3408 21.0468C23.2184 20.7827 22.7736 20.5908 22.3426 20.5908C21.9866 20.5908 21.6391 20.7215 21.4917 21.0468" fill="#371D1E"/>
<mask id="mask1_1924_1637" style="mask-type:luminance" maskUnits="userSpaceOnUse" x="19" y="20" width="7" height="8">
<path d="M22.4399 22.2842L23.2824 24.9258H21.5251L22.4399 22.2842ZM21.4945 21.0468C21.1219 21.8671 19.7733 25.7461 19.3284 26.7749C19.0058 27.5173 20.3989 28.1235 20.7215 27.3811L21.0246 26.3216H23.7968C23.7968 26.3216 23.7023 26.3661 24.0693 27.3366C24.3668 28.1235 25.8072 27.5785 25.5097 26.7916C25.0842 25.6682 23.6105 21.6196 23.3408 21.0468C23.2184 20.7827 22.7736 20.5908 22.3426 20.5908C21.9866 20.5908 21.6391 20.7215 21.4917 21.0468" fill="white"/>
</mask>
<g mask="url(#mask1_1924_1637)">
<path d="M25.8098 20.5936H19.0029V28.1291H25.8098V20.5936Z" fill="#371D1E"/>
</g>
<path d="M26.0435 21.2888C26.0435 22.6068 26.0518 26.8555 26.0518 26.8555C26.0518 26.8555 25.9295 27.7008 26.6552 27.7008C27.3809 27.7008 28.9853 27.6925 29.6972 27.6925C30.409 27.6925 30.4062 26.1771 29.6944 26.1771C28.9826 26.1771 27.6812 26.1687 27.6812 26.1687C27.6812 26.1687 27.6868 22.2397 27.684 21.2832C27.684 20.8216 27.2725 20.5908 26.8637 20.5908C26.455 20.5908 26.0407 20.8244 26.0435 21.286" fill="#371D1E"/>
<mask id="mask2_1924_1637" style="mask-type:luminance" maskUnits="userSpaceOnUse" x="26" y="20" width="5" height="8">
<path d="M26.0435 21.2888C26.0435 22.6068 26.0518 26.8555 26.0518 26.8555C26.0518 26.8555 25.9295 27.7008 26.6552 27.7008C27.3809 27.7008 28.9853 27.6925 29.6972 27.6925C30.409 27.6925 30.4062 26.1771 29.6944 26.1771C28.9826 26.1771 27.6812 26.1687 27.6812 26.1687C27.6812 26.1687 27.6868 22.2397 27.684 21.2832C27.684 20.8216 27.2725 20.5908 26.8637 20.5908C26.455 20.5908 26.0407 20.8244 26.0435 21.286" fill="white"/>
</mask>
<g mask="url(#mask2_1924_1637)">
<path d="M30.4092 20.5936H25.9297V27.7008H30.4092V20.5936Z" fill="#371D1E"/>
</g>
<path d="M30.5981 21.0803C30.6148 21.6586 30.5786 26.8862 30.5786 27.2727C30.5786 27.8844 32.1358 27.8816 32.1358 27.2727C32.1358 26.5636 32.1358 25.215 32.1358 25.215L32.5918 24.848L34.591 27.573C34.9942 28.1068 36.2649 27.142 35.8618 26.6109L33.7402 23.8164C33.7402 23.8164 35.1805 22.2592 35.7478 21.6948C36.0786 21.3667 35.0526 20.3323 34.7217 20.6632C34.4019 20.9802 32.1441 23.2408 32.1441 23.2408C32.1441 23.2408 32.1636 21.8227 32.1441 21.0386C32.1358 20.741 31.7715 20.5964 31.3961 20.5964C30.9957 20.5964 30.587 20.7605 30.5953 21.0803" fill="#371D1E"/>
<mask id="mask3_1924_1637" style="mask-type:luminance" maskUnits="userSpaceOnUse" x="30" y="20" width="6" height="8">
<path d="M30.5981 21.0803C30.6148 21.6586 30.5786 26.8862 30.5786 27.2727C30.5786 27.8844 32.1358 27.8816 32.1358 27.2727C32.1358 26.5636 32.1358 25.215 32.1358 25.215L32.5918 24.848L34.591 27.573C34.9942 28.1068 36.2649 27.142 35.8618 26.6109L33.7402 23.8164C33.7402 23.8164 35.1805 22.2592 35.7478 21.6948C36.0786 21.3667 35.0526 20.3323 34.7217 20.6632C34.4019 20.9802 32.1441 23.2408 32.1441 23.2408C32.1441 23.2408 32.1636 21.8227 32.1441 21.0386C32.1358 20.741 31.7715 20.5964 31.3961 20.5964C30.9957 20.5964 30.587 20.7605 30.5953 21.0803" fill="white"/>
</mask>
<g mask="url(#mask3_1924_1637)">
<path d="M36.2649 20.3351H30.5786V28.1097H36.2649V20.3351Z" fill="#371D1E"/>
</g>
</svg>
