<svg width="20" height="20" viewBox="0 0 20 20" fill="none" xmlns="http://www.w3.org/2000/svg">
<g clip-path="url(#clip0_1804_2761)">
<path d="M5.83333 10.8334V4.16669C5.83333 3.94568 5.74554 3.73372 5.58926 3.57744C5.43298 3.42116 5.22101 3.33336 5 3.33336H3.33333C3.11232 3.33336 2.90036 3.42116 2.74408 3.57744C2.5878 3.73372 2.5 3.94568 2.5 4.16669V10C2.5 10.221 2.5878 10.433 2.74408 10.5893C2.90036 10.7456 3.11232 10.8334 3.33333 10.8334H5.83333ZM5.83333 10.8334C6.71739 10.8334 7.56524 11.1845 8.19036 11.8097C8.81548 12.4348 9.16667 13.2826 9.16667 14.1667V15C9.16667 15.4421 9.34226 15.866 9.65482 16.1785C9.96738 16.4911 10.3913 16.6667 10.8333 16.6667C11.2754 16.6667 11.6993 16.4911 12.0118 16.1785C12.3244 15.866 12.5 15.4421 12.5 15V10.8334H15C15.442 10.8334 15.866 10.6578 16.1785 10.3452C16.4911 10.0326 16.6667 9.60872 16.6667 9.16669L15.8333 5.00003C15.7135 4.4888 15.4861 4.04982 15.1855 3.74922C14.8849 3.44862 14.5274 3.30267 14.1667 3.33336H8.33333C7.67029 3.33336 7.03441 3.59675 6.56557 4.06559C6.09673 4.53443 5.83333 5.17032 5.83333 5.83336" stroke="black" stroke-width="2" stroke-linecap="round" stroke-linejoin="round"/>
</g>
<defs>
<clipPath id="clip0_1804_2761">
<rect width="20" height="20" fill="white"/>
</clipPath>
</defs>
</svg>
