<svg width="20" height="20" viewBox="0 0 20 20" fill="none" xmlns="http://www.w3.org/2000/svg">
<path d="M6.43317 13.7133L7.90067 13.29L16.7365 4.34829C16.8062 4.27687 16.845 4.1809 16.8445 4.08111C16.8441 3.98132 16.8044 3.88572 16.734 3.81495L16.2048 3.27995C16.1706 3.24482 16.1298 3.21684 16.0847 3.19767C16.0395 3.17849 15.9911 3.16849 15.942 3.16826C15.893 3.16803 15.8444 3.17756 15.7991 3.19631C15.7538 3.21506 15.7127 3.24264 15.6782 3.27745L6.86567 12.1958L6.43234 13.7125L6.43317 13.7133ZM17.2523 2.21995L17.7815 2.75579C18.5115 3.49495 18.5182 4.68745 17.7948 5.41912L8.68984 14.6341L5.55317 15.5375C5.36167 15.5911 5.15672 15.5665 4.98331 15.4692C4.80989 15.3718 4.68217 15.2097 4.62817 15.0183C4.58799 14.8807 4.58741 14.7345 4.6265 14.5966L5.539 11.3966L14.6198 2.20579C14.7925 2.03192 14.9981 1.89417 15.2245 1.80058C15.451 1.70699 15.6938 1.65943 15.9389 1.66067C16.1839 1.66191 16.4263 1.71193 16.6518 1.80781C16.8773 1.90369 17.0814 2.04434 17.2523 2.21995ZM7.65317 3.18079C8.0665 3.18079 8.4015 3.51995 8.4015 3.93829C8.40216 4.03718 8.38332 4.13523 8.34606 4.22683C8.3088 4.31843 8.25385 4.4018 8.18435 4.47215C8.11485 4.5425 8.03216 4.59846 7.94102 4.63684C7.84987 4.67521 7.75206 4.69524 7.65317 4.69579H4.65984C3.83317 4.69579 3.16317 5.37412 3.16317 6.20995V15.2983C3.16317 16.135 3.83317 16.8133 4.65984 16.8133H13.6398C14.4665 16.8133 15.1373 16.135 15.1373 15.2983V12.2691C15.1373 11.8508 15.4723 11.5116 15.8857 11.5116C16.299 11.5116 16.634 11.8508 16.634 12.27V15.2983C16.634 16.9716 15.2932 18.3283 13.6398 18.3283H4.65984C3.0065 18.3283 1.6665 16.9716 1.6665 15.2983V6.20995C1.6665 4.53745 3.0065 3.18079 4.65984 3.18079H7.65317Z" fill="#ABB0BC"/>
</svg>
